<svg width="116" height="68" viewBox="0 0 116 68" fill="none" xmlns="http://www.w3.org/2000/svg">
<path fill-rule="evenodd" clip-rule="evenodd" d="M21.4798 -1.90735e-06V5.2H6.79982V12.6H19.7598V17.8H6.79982V28H0.319824V-1.90735e-06H21.4798ZM50.9867 15.68C50.9867 23.92 46.2667 28.48 38.3067 28.48C30.3467 28.48 25.6267 23.92 25.6267 15.68V-1.90735e-06H32.1067V15.44C32.1067 20.76 34.4267 22.96 38.3467 22.96C42.3067 22.96 44.5867 20.76 44.5867 15.44V-1.90735e-06H50.9867V15.68ZM76.6701 17V-1.90735e-06H83.0701V28H77.7501L63.7901 11V28H57.3901V-1.90735e-06H62.7501L76.6701 17ZM19.5198 50.04V39H25.9998V67H19.5198V55.52H6.79982V67H0.319824V39H6.79982V50.04H19.5198ZM60.3445 67H53.5445L51.0645 61H38.0645L35.5845 67H28.9445L41.4245 39H47.8245L60.3445 67ZM44.5845 45.36L40.1445 56.08H49.0245L44.5845 45.36ZM87.7836 54.68C87.7836 62.92 83.0636 67.48 75.1036 67.48C67.1436 67.48 62.4236 62.92 62.4236 54.68V39H68.9036V54.44C68.9036 59.76 71.2236 61.96 75.1436 61.96C79.1036 61.96 81.3836 59.76 81.3836 54.44V39H87.7836V54.68ZM110.705 45.7891L111.697 46.3534L112.126 45.2966L114.126 40.3766L114.442 39.6009L113.733 39.1542C110.933 37.3878 107.134 36.52 103.48 36.52C99.3431 36.52 96.1474 37.5489 93.9651 39.3182C91.7655 41.1015 90.6798 43.5721 90.6798 46.24C90.6798 49.1537 91.8435 51.1647 93.6033 52.5563C95.3038 53.9009 97.5143 54.6304 99.5689 55.163C100.272 55.3452 100.985 55.5108 101.662 55.6682C101.976 55.7412 102.282 55.8123 102.577 55.8826C103.526 56.1094 104.367 56.3301 105.071 56.5891C105.783 56.8514 106.271 57.1238 106.571 57.4094C106.838 57.6634 106.96 57.9258 106.96 58.28C106.96 58.78 106.761 59.2134 106.176 59.5732C105.531 59.9697 104.395 60.28 102.56 60.28C99.4079 60.28 96.0948 59.1451 93.9088 57.5519L92.9141 56.8269L92.4082 57.949L90.2082 62.829L89.8841 63.548L90.5077 64.0307C93.2143 66.1262 97.9334 67.48 102.52 67.48C106.678 67.48 109.891 66.4405 112.087 64.6741C114.298 62.8949 115.4 60.4357 115.4 57.8C115.4 54.9118 114.232 52.92 112.472 51.5445C110.771 50.2159 108.562 49.496 106.507 48.9711C105.746 48.7766 105.019 48.6107 104.332 48.454L104.332 48.4539C103.076 48.1673 101.954 47.9113 101.004 47.5672C100.29 47.3088 99.8024 47.0406 99.5026 46.7601C99.2368 46.5114 99.1198 46.2587 99.1198 45.92C99.1198 45.3602 99.3349 44.874 99.9035 44.486C100.521 44.0647 101.622 43.72 103.44 43.72C105.728 43.72 108.239 44.3851 110.705 45.7891ZM92.9007 59.2898L91.1198 63.24C93.5998 65.16 98.0798 66.48 102.52 66.48C110.52 66.48 114.4 62.48 114.4 57.8C114.4 51.783 108.822 50.5074 104.197 49.4495C100.919 48.7 98.1198 48.0598 98.1198 45.92C98.1198 44.16 99.5998 42.72 103.44 42.72C105.639 42.72 107.995 43.286 110.313 44.446C110.609 44.5943 110.905 44.7522 111.2 44.92L111.58 43.986L113.2 40C110.6 38.36 107 37.52 103.48 37.52C95.5198 37.52 91.6798 41.48 91.6798 46.24C91.6798 52.3225 97.2485 53.6162 101.872 54.6904C105.154 55.4528 107.96 56.1046 107.96 58.28C107.96 60 106.4 61.28 102.56 61.28C99.5798 61.28 96.4739 60.3361 94.1631 58.9226C93.8685 58.7424 93.5867 58.5545 93.3198 58.36L92.9007 59.2898Z" fill="#101010"/>
</svg>
